# xmcd CD database file
#
# Track frame offsets:
#	150
#	14890
#	28212
#	47155
#	58812
#	74167
#	87790
#	102960
#	116757
#	132440
#
# Disc length: 1924 seconds
#
# Revision: 0
# Processed by: cddbd v1.4PL0 Copyright (c) Steve Scherf et al.
# Submitted via: CDex 1.50
#
DISCID=9a07820a
DTITLE=80's Country's #1 Men - 80's Country's #1 Men
DYEAR=1990
DGENRE=Country
TTITLE0=He Stopped Loving Her Today - George Jones
TTITLE1=New Looks From an Old Lover - B.J. Thomas
TTITLE2=Don't Close Your Eyes -Keith Whitley
TTITLE3=Don't Call Him a Cowboy - Conway Twitty
TTITLE4=Twinkle-Twinkle Lucky Star - Merle Haggard
TTITLE5=Swinin' - John Anderson
TTITLE6=Life Turned Her Way - Ricky Van Shelton
TTITLE7=Snap Your Fingers - Ronnie Milsap
TTITLE8=You're the Best Break This Old Heart Ever Had - Ed Bruce
TTITLE9=I've Been Around Enough To Know - John Schneider
EXTD=YEAR: 1990
EXTT0=
EXTT1=
EXTT2=
EXTT3=
EXTT4=
EXTT5=
EXTT6=
EXTT7=
EXTT8=
EXTT9=
PLAYORDER=
